<mxfile host="app.diagrams.net" modified="2024-07-13T06:47:36.957Z" agent="Mozilla/5.0 (Macintosh; Intel Mac OS X 10_15_7) AppleWebKit/537.36 (KHTML, like Gecko) Chrome/126.0.0.0 Safari/537.36" etag="t1-1WlKh4ChoojAfT7nf" version="24.6.5" type="github">
  <diagram id="R2lEEEUBdFMjLlhIrx00" name="Page-1">
    <mxGraphModel dx="621" dy="393" grid="1" gridSize="10" guides="1" tooltips="1" connect="1" arrows="1" fold="1" page="1" pageScale="1" pageWidth="850" pageHeight="1100" math="0" shadow="0" extFonts="Permanent Marker^https://fonts.googleapis.com/css?family=Permanent+Marker">
      <root>
        <mxCell id="0" />
        <mxCell id="1" parent="0" />
        <mxCell id="Yi8c3AIgJzuLTYuk-4H1-5" value="계정과목" style="whiteSpace=wrap;html=1;aspect=fixed;" vertex="1" parent="1">
          <mxGeometry x="160" y="40" width="80" height="80" as="geometry" />
        </mxCell>
        <mxCell id="Yi8c3AIgJzuLTYuk-4H1-6" value="거래" style="whiteSpace=wrap;html=1;aspect=fixed;" vertex="1" parent="1">
          <mxGeometry x="430" y="40" width="80" height="80" as="geometry" />
        </mxCell>
        <mxCell id="Yi8c3AIgJzuLTYuk-4H1-7" value="댓글" style="whiteSpace=wrap;html=1;aspect=fixed;" vertex="1" parent="1">
          <mxGeometry x="450" y="300" width="80" height="80" as="geometry" />
        </mxCell>
        <mxCell id="Yi8c3AIgJzuLTYuk-4H1-24" style="edgeStyle=orthogonalEdgeStyle;rounded=0;orthogonalLoop=1;jettySize=auto;html=1;" edge="1" parent="1" source="Yi8c3AIgJzuLTYuk-4H1-13" target="Yi8c3AIgJzuLTYuk-4H1-5">
          <mxGeometry relative="1" as="geometry" />
        </mxCell>
        <mxCell id="Yi8c3AIgJzuLTYuk-4H1-13" value="&lt;u&gt;계정id&lt;/u&gt;" style="ellipse;whiteSpace=wrap;html=1;" vertex="1" parent="1">
          <mxGeometry x="40" y="40" width="60" height="40" as="geometry" />
        </mxCell>
        <mxCell id="Yi8c3AIgJzuLTYuk-4H1-14" value="계정이름" style="ellipse;whiteSpace=wrap;html=1;" vertex="1" parent="1">
          <mxGeometry x="40" y="90" width="60" height="40" as="geometry" />
        </mxCell>
        <mxCell id="Yi8c3AIgJzuLTYuk-4H1-15" value="설명&lt;span style=&quot;color: rgba(0, 0, 0, 0); font-family: monospace; font-size: 0px; text-align: start; text-wrap: nowrap;&quot;&gt;%3CmxGraphModel%3E%3Croot%3E%3CmxCell%20id%3D%220%22%2F%3E%3CmxCell%20id%3D%221%22%20parent%3D%220%22%2F%3E%3CmxCell%20id%3D%222%22%20value%3D%22%22%20style%3D%22ellipse%3BwhiteSpace%3Dwrap%3Bhtml%3D1%3B%22%20vertex%3D%221%22%20parent%3D%221%22%3E%3CmxGeometry%20x%3D%2210%22%20y%3D%22150%22%20width%3D%2260%22%20height%3D%2240%22%20as%3D%22geometry%22%2F%3E%3C%2FmxCell%3E%3C%2Froot%3E%3C%2FmxGraphModel%3E&lt;/span&gt;" style="ellipse;whiteSpace=wrap;html=1;" vertex="1" parent="1">
          <mxGeometry x="200" y="160" width="60" height="40" as="geometry" />
        </mxCell>
        <mxCell id="Yi8c3AIgJzuLTYuk-4H1-16" value="계정유형" style="ellipse;whiteSpace=wrap;html=1;" vertex="1" parent="1">
          <mxGeometry x="40" y="140" width="60" height="40" as="geometry" />
        </mxCell>
        <mxCell id="Yi8c3AIgJzuLTYuk-4H1-17" value="잔액&lt;span style=&quot;color: rgba(0, 0, 0, 0); font-family: monospace; font-size: 0px; text-align: start; text-wrap: nowrap;&quot;&gt;%3CmxGraphModel%3E%3Croot%3E%3CmxCell%20id%3D%220%22%2F%3E%3CmxCell%20id%3D%221%22%20parent%3D%220%22%2F%3E%3CmxCell%20id%3D%222%22%20value%3D%22%22%20style%3D%22ellipse%3BwhiteSpace%3Dwrap%3Bhtml%3D1%3B%22%20vertex%3D%221%22%20parent%3D%221%22%3E%3CmxGeometry%20x%3D%2210%22%20y%3D%22150%22%20width%3D%2260%22%20height%3D%2240%22%20as%3D%22geometry%22%2F%3E%3C%2FmxCell%3E%3C%2Froot%3E%3C%2FmxGraphModel%3E&lt;/span&gt;" style="ellipse;whiteSpace=wrap;html=1;" vertex="1" parent="1">
          <mxGeometry x="120" y="160" width="60" height="40" as="geometry" />
        </mxCell>
        <mxCell id="Yi8c3AIgJzuLTYuk-4H1-18" value="작성자id" style="ellipse;whiteSpace=wrap;html=1;" vertex="1" parent="1">
          <mxGeometry x="265" y="130" width="60" height="40" as="geometry" />
        </mxCell>
        <mxCell id="Yi8c3AIgJzuLTYuk-4H1-20" style="edgeStyle=orthogonalEdgeStyle;rounded=0;orthogonalLoop=1;jettySize=auto;html=1;entryX=0.925;entryY=0.998;entryDx=0;entryDy=0;entryPerimeter=0;" edge="1" parent="1" source="Yi8c3AIgJzuLTYuk-4H1-15" target="Yi8c3AIgJzuLTYuk-4H1-5">
          <mxGeometry relative="1" as="geometry" />
        </mxCell>
        <mxCell id="Yi8c3AIgJzuLTYuk-4H1-21" style="edgeStyle=orthogonalEdgeStyle;rounded=0;orthogonalLoop=1;jettySize=auto;html=1;entryX=0.451;entryY=1.003;entryDx=0;entryDy=0;entryPerimeter=0;" edge="1" parent="1">
          <mxGeometry relative="1" as="geometry">
            <mxPoint x="133.9" y="159.76" as="sourcePoint" />
            <mxPoint x="179.98000000000005" y="120.00000000000001" as="targetPoint" />
          </mxGeometry>
        </mxCell>
        <mxCell id="Yi8c3AIgJzuLTYuk-4H1-22" style="edgeStyle=orthogonalEdgeStyle;rounded=0;orthogonalLoop=1;jettySize=auto;html=1;entryX=-0.038;entryY=0.854;entryDx=0;entryDy=0;entryPerimeter=0;" edge="1" parent="1" source="Yi8c3AIgJzuLTYuk-4H1-16" target="Yi8c3AIgJzuLTYuk-4H1-5">
          <mxGeometry relative="1" as="geometry">
            <Array as="points">
              <mxPoint x="140" y="140" />
              <mxPoint x="140" y="108" />
            </Array>
          </mxGeometry>
        </mxCell>
        <mxCell id="Yi8c3AIgJzuLTYuk-4H1-23" style="edgeStyle=orthogonalEdgeStyle;rounded=0;orthogonalLoop=1;jettySize=auto;html=1;entryX=-0.006;entryY=0.806;entryDx=0;entryDy=0;entryPerimeter=0;" edge="1" parent="1" source="Yi8c3AIgJzuLTYuk-4H1-14" target="Yi8c3AIgJzuLTYuk-4H1-5">
          <mxGeometry relative="1" as="geometry" />
        </mxCell>
        <mxCell id="Yi8c3AIgJzuLTYuk-4H1-25" value="거래일" style="ellipse;whiteSpace=wrap;html=1;" vertex="1" parent="1">
          <mxGeometry x="340" y="90" width="60" height="40" as="geometry" />
        </mxCell>
        <mxCell id="Yi8c3AIgJzuLTYuk-4H1-40" style="edgeStyle=orthogonalEdgeStyle;rounded=0;orthogonalLoop=1;jettySize=auto;html=1;entryX=0;entryY=0.25;entryDx=0;entryDy=0;" edge="1" parent="1" source="Yi8c3AIgJzuLTYuk-4H1-26" target="Yi8c3AIgJzuLTYuk-4H1-6">
          <mxGeometry relative="1" as="geometry" />
        </mxCell>
        <mxCell id="Yi8c3AIgJzuLTYuk-4H1-26" value="&lt;u&gt;거래id&lt;/u&gt;" style="ellipse;whiteSpace=wrap;html=1;" vertex="1" parent="1">
          <mxGeometry x="340" y="40" width="60" height="40" as="geometry" />
        </mxCell>
        <mxCell id="Yi8c3AIgJzuLTYuk-4H1-36" style="edgeStyle=orthogonalEdgeStyle;rounded=0;orthogonalLoop=1;jettySize=auto;html=1;entryX=0.25;entryY=1;entryDx=0;entryDy=0;" edge="1" parent="1" source="Yi8c3AIgJzuLTYuk-4H1-27" target="Yi8c3AIgJzuLTYuk-4H1-6">
          <mxGeometry relative="1" as="geometry" />
        </mxCell>
        <mxCell id="Yi8c3AIgJzuLTYuk-4H1-27" value="대변" style="ellipse;whiteSpace=wrap;html=1;" vertex="1" parent="1">
          <mxGeometry x="390" y="150" width="60" height="40" as="geometry" />
        </mxCell>
        <mxCell id="Yi8c3AIgJzuLTYuk-4H1-35" style="edgeStyle=orthogonalEdgeStyle;rounded=0;orthogonalLoop=1;jettySize=auto;html=1;" edge="1" parent="1" source="Yi8c3AIgJzuLTYuk-4H1-28" target="Yi8c3AIgJzuLTYuk-4H1-6">
          <mxGeometry relative="1" as="geometry" />
        </mxCell>
        <mxCell id="Yi8c3AIgJzuLTYuk-4H1-28" value="차변" style="ellipse;whiteSpace=wrap;html=1;" vertex="1" parent="1">
          <mxGeometry x="460" y="150" width="60" height="40" as="geometry" />
        </mxCell>
        <mxCell id="Yi8c3AIgJzuLTYuk-4H1-34" style="edgeStyle=orthogonalEdgeStyle;rounded=0;orthogonalLoop=1;jettySize=auto;html=1;entryX=1;entryY=0.75;entryDx=0;entryDy=0;" edge="1" parent="1" source="Yi8c3AIgJzuLTYuk-4H1-29" target="Yi8c3AIgJzuLTYuk-4H1-6">
          <mxGeometry relative="1" as="geometry" />
        </mxCell>
        <mxCell id="Yi8c3AIgJzuLTYuk-4H1-29" value="금액" style="ellipse;whiteSpace=wrap;html=1;" vertex="1" parent="1">
          <mxGeometry x="540" y="150" width="60" height="40" as="geometry" />
        </mxCell>
        <mxCell id="Yi8c3AIgJzuLTYuk-4H1-33" style="edgeStyle=orthogonalEdgeStyle;rounded=0;orthogonalLoop=1;jettySize=auto;html=1;" edge="1" parent="1" source="Yi8c3AIgJzuLTYuk-4H1-30" target="Yi8c3AIgJzuLTYuk-4H1-6">
          <mxGeometry relative="1" as="geometry" />
        </mxCell>
        <mxCell id="Yi8c3AIgJzuLTYuk-4H1-30" value="적요" style="ellipse;whiteSpace=wrap;html=1;" vertex="1" parent="1">
          <mxGeometry x="580" y="90" width="60" height="40" as="geometry" />
        </mxCell>
        <mxCell id="Yi8c3AIgJzuLTYuk-4H1-31" value="작성자id" style="ellipse;whiteSpace=wrap;html=1;" vertex="1" parent="1">
          <mxGeometry x="580" y="40" width="60" height="40" as="geometry" />
        </mxCell>
        <mxCell id="Yi8c3AIgJzuLTYuk-4H1-32" style="edgeStyle=orthogonalEdgeStyle;rounded=0;orthogonalLoop=1;jettySize=auto;html=1;entryX=0.988;entryY=0.188;entryDx=0;entryDy=0;entryPerimeter=0;" edge="1" parent="1" source="Yi8c3AIgJzuLTYuk-4H1-31" target="Yi8c3AIgJzuLTYuk-4H1-6">
          <mxGeometry relative="1" as="geometry" />
        </mxCell>
        <mxCell id="Yi8c3AIgJzuLTYuk-4H1-39" style="edgeStyle=orthogonalEdgeStyle;rounded=0;orthogonalLoop=1;jettySize=auto;html=1;entryX=0;entryY=0.875;entryDx=0;entryDy=0;entryPerimeter=0;" edge="1" parent="1" source="Yi8c3AIgJzuLTYuk-4H1-25" target="Yi8c3AIgJzuLTYuk-4H1-6">
          <mxGeometry relative="1" as="geometry" />
        </mxCell>
        <mxCell id="Yi8c3AIgJzuLTYuk-4H1-41" value="회원" style="whiteSpace=wrap;html=1;aspect=fixed;" vertex="1" parent="1">
          <mxGeometry x="140" y="300" width="80" height="80" as="geometry" />
        </mxCell>
        <mxCell id="Yi8c3AIgJzuLTYuk-4H1-46" style="edgeStyle=orthogonalEdgeStyle;rounded=0;orthogonalLoop=1;jettySize=auto;html=1;entryX=0;entryY=1;entryDx=0;entryDy=0;" edge="1" parent="1" source="Yi8c3AIgJzuLTYuk-4H1-43" target="Yi8c3AIgJzuLTYuk-4H1-41">
          <mxGeometry relative="1" as="geometry" />
        </mxCell>
        <mxCell id="Yi8c3AIgJzuLTYuk-4H1-79" style="edgeStyle=orthogonalEdgeStyle;rounded=0;orthogonalLoop=1;jettySize=auto;html=1;entryX=0;entryY=1;entryDx=0;entryDy=0;" edge="1" parent="1" source="Yi8c3AIgJzuLTYuk-4H1-43" target="Yi8c3AIgJzuLTYuk-4H1-41">
          <mxGeometry relative="1" as="geometry" />
        </mxCell>
        <mxCell id="Yi8c3AIgJzuLTYuk-4H1-43" value="&lt;u&gt;회원id&lt;/u&gt;" style="ellipse;whiteSpace=wrap;html=1;" vertex="1" parent="1">
          <mxGeometry x="50" y="410" width="60" height="40" as="geometry" />
        </mxCell>
        <mxCell id="Yi8c3AIgJzuLTYuk-4H1-44" value="회원이름" style="ellipse;whiteSpace=wrap;html=1;" vertex="1" parent="1">
          <mxGeometry x="150" y="410" width="60" height="40" as="geometry" />
        </mxCell>
        <mxCell id="Yi8c3AIgJzuLTYuk-4H1-51" style="edgeStyle=orthogonalEdgeStyle;rounded=0;orthogonalLoop=1;jettySize=auto;html=1;entryX=1;entryY=1;entryDx=0;entryDy=0;" edge="1" parent="1" source="Yi8c3AIgJzuLTYuk-4H1-45" target="Yi8c3AIgJzuLTYuk-4H1-41">
          <mxGeometry relative="1" as="geometry" />
        </mxCell>
        <mxCell id="Yi8c3AIgJzuLTYuk-4H1-45" value="등급" style="ellipse;whiteSpace=wrap;html=1;" vertex="1" parent="1">
          <mxGeometry x="240" y="370" width="60" height="40" as="geometry" />
        </mxCell>
        <mxCell id="Yi8c3AIgJzuLTYuk-4H1-47" style="edgeStyle=orthogonalEdgeStyle;rounded=0;orthogonalLoop=1;jettySize=auto;html=1;entryX=0.513;entryY=1.05;entryDx=0;entryDy=0;entryPerimeter=0;" edge="1" parent="1" source="Yi8c3AIgJzuLTYuk-4H1-44" target="Yi8c3AIgJzuLTYuk-4H1-41">
          <mxGeometry relative="1" as="geometry" />
        </mxCell>
        <mxCell id="Yi8c3AIgJzuLTYuk-4H1-57" style="edgeStyle=orthogonalEdgeStyle;rounded=0;orthogonalLoop=1;jettySize=auto;html=1;entryX=0;entryY=1;entryDx=0;entryDy=0;" edge="1" parent="1" source="Yi8c3AIgJzuLTYuk-4H1-52" target="Yi8c3AIgJzuLTYuk-4H1-7">
          <mxGeometry relative="1" as="geometry" />
        </mxCell>
        <mxCell id="Yi8c3AIgJzuLTYuk-4H1-52" value="&lt;u&gt;댓글id&lt;/u&gt;" style="ellipse;whiteSpace=wrap;html=1;" vertex="1" parent="1">
          <mxGeometry x="390" y="410" width="60" height="40" as="geometry" />
        </mxCell>
        <mxCell id="Yi8c3AIgJzuLTYuk-4H1-53" value="작성자id" style="ellipse;whiteSpace=wrap;html=1;" vertex="1" parent="1">
          <mxGeometry x="470" y="410" width="60" height="40" as="geometry" />
        </mxCell>
        <mxCell id="Yi8c3AIgJzuLTYuk-4H1-54" value="내용" style="ellipse;whiteSpace=wrap;html=1;" vertex="1" parent="1">
          <mxGeometry x="550" y="410" width="60" height="40" as="geometry" />
        </mxCell>
        <mxCell id="Yi8c3AIgJzuLTYuk-4H1-60" style="edgeStyle=orthogonalEdgeStyle;rounded=0;orthogonalLoop=1;jettySize=auto;html=1;" edge="1" parent="1" source="Yi8c3AIgJzuLTYuk-4H1-55" target="Yi8c3AIgJzuLTYuk-4H1-7">
          <mxGeometry relative="1" as="geometry" />
        </mxCell>
        <mxCell id="Yi8c3AIgJzuLTYuk-4H1-55" value="작성일" style="ellipse;whiteSpace=wrap;html=1;" vertex="1" parent="1">
          <mxGeometry x="560" y="350" width="60" height="40" as="geometry" />
        </mxCell>
        <mxCell id="Yi8c3AIgJzuLTYuk-4H1-56" value="거래id" style="ellipse;whiteSpace=wrap;html=1;" vertex="1" parent="1">
          <mxGeometry x="560" y="290" width="60" height="40" as="geometry" />
        </mxCell>
        <mxCell id="Yi8c3AIgJzuLTYuk-4H1-58" style="edgeStyle=orthogonalEdgeStyle;rounded=0;orthogonalLoop=1;jettySize=auto;html=1;entryX=0.613;entryY=1.031;entryDx=0;entryDy=0;entryPerimeter=0;" edge="1" parent="1" source="Yi8c3AIgJzuLTYuk-4H1-53" target="Yi8c3AIgJzuLTYuk-4H1-7">
          <mxGeometry relative="1" as="geometry" />
        </mxCell>
        <mxCell id="Yi8c3AIgJzuLTYuk-4H1-59" style="edgeStyle=orthogonalEdgeStyle;rounded=0;orthogonalLoop=1;jettySize=auto;html=1;entryX=1.056;entryY=0.919;entryDx=0;entryDy=0;entryPerimeter=0;" edge="1" parent="1" source="Yi8c3AIgJzuLTYuk-4H1-54" target="Yi8c3AIgJzuLTYuk-4H1-7">
          <mxGeometry relative="1" as="geometry">
            <Array as="points">
              <mxPoint x="580" y="400" />
              <mxPoint x="530" y="400" />
              <mxPoint x="530" y="390" />
              <mxPoint x="535" y="390" />
            </Array>
          </mxGeometry>
        </mxCell>
        <mxCell id="Yi8c3AIgJzuLTYuk-4H1-61" style="edgeStyle=orthogonalEdgeStyle;rounded=0;orthogonalLoop=1;jettySize=auto;html=1;entryX=1.031;entryY=0.131;entryDx=0;entryDy=0;entryPerimeter=0;" edge="1" parent="1" source="Yi8c3AIgJzuLTYuk-4H1-56" target="Yi8c3AIgJzuLTYuk-4H1-7">
          <mxGeometry relative="1" as="geometry" />
        </mxCell>
        <mxCell id="Yi8c3AIgJzuLTYuk-4H1-62" value="작성" style="rhombus;whiteSpace=wrap;html=1;" vertex="1" parent="1">
          <mxGeometry x="170" y="230" width="30" height="30" as="geometry" />
        </mxCell>
        <mxCell id="Yi8c3AIgJzuLTYuk-4H1-72" style="edgeStyle=orthogonalEdgeStyle;rounded=0;orthogonalLoop=1;jettySize=auto;html=1;entryX=0;entryY=0.5;entryDx=0;entryDy=0;endArrow=ERzeroToMany;endFill=0;" edge="1" parent="1" source="Yi8c3AIgJzuLTYuk-4H1-63" target="Yi8c3AIgJzuLTYuk-4H1-7">
          <mxGeometry relative="1" as="geometry" />
        </mxCell>
        <mxCell id="Yi8c3AIgJzuLTYuk-4H1-82" style="edgeStyle=orthogonalEdgeStyle;rounded=0;orthogonalLoop=1;jettySize=auto;html=1;entryX=1;entryY=0.5;entryDx=0;entryDy=0;endArrow=ERone;endFill=0;" edge="1" parent="1" source="Yi8c3AIgJzuLTYuk-4H1-63" target="Yi8c3AIgJzuLTYuk-4H1-41">
          <mxGeometry relative="1" as="geometry" />
        </mxCell>
        <mxCell id="Yi8c3AIgJzuLTYuk-4H1-63" value="작성" style="rhombus;whiteSpace=wrap;html=1;" vertex="1" parent="1">
          <mxGeometry x="340" y="325" width="30" height="30" as="geometry" />
        </mxCell>
        <mxCell id="Yi8c3AIgJzuLTYuk-4H1-65" value="댓글" style="rhombus;whiteSpace=wrap;html=1;" vertex="1" parent="1">
          <mxGeometry x="490" y="220" width="30" height="30" as="geometry" />
        </mxCell>
        <mxCell id="Yi8c3AIgJzuLTYuk-4H1-66" style="edgeStyle=orthogonalEdgeStyle;rounded=0;orthogonalLoop=1;jettySize=auto;html=1;entryX=0.563;entryY=-0.031;entryDx=0;entryDy=0;entryPerimeter=0;startArrow=none;startFill=0;endArrow=ERone;endFill=0;" edge="1" parent="1" source="Yi8c3AIgJzuLTYuk-4H1-62" target="Yi8c3AIgJzuLTYuk-4H1-41">
          <mxGeometry relative="1" as="geometry" />
        </mxCell>
        <mxCell id="Yi8c3AIgJzuLTYuk-4H1-67" style="edgeStyle=orthogonalEdgeStyle;rounded=0;orthogonalLoop=1;jettySize=auto;html=1;entryX=0.631;entryY=1.044;entryDx=0;entryDy=0;entryPerimeter=0;exitX=0.533;exitY=-0.15;exitDx=0;exitDy=0;exitPerimeter=0;endArrow=ERoneToMany;endFill=0;" edge="1" parent="1" source="Yi8c3AIgJzuLTYuk-4H1-62">
          <mxGeometry relative="1" as="geometry">
            <mxPoint x="174.5" y="226.48" as="sourcePoint" />
            <mxPoint x="199.98000000000002" y="119.99999999999999" as="targetPoint" />
          </mxGeometry>
        </mxCell>
        <mxCell id="Yi8c3AIgJzuLTYuk-4H1-68" value="작성" style="rhombus;whiteSpace=wrap;html=1;" vertex="1" parent="1">
          <mxGeometry x="280" y="270" width="30" height="30" as="geometry" />
        </mxCell>
        <mxCell id="Yi8c3AIgJzuLTYuk-4H1-69" style="edgeStyle=orthogonalEdgeStyle;rounded=0;orthogonalLoop=1;jettySize=auto;html=1;entryX=0.994;entryY=0.081;entryDx=0;entryDy=0;entryPerimeter=0;endArrow=ERone;endFill=0;" edge="1" parent="1" source="Yi8c3AIgJzuLTYuk-4H1-68" target="Yi8c3AIgJzuLTYuk-4H1-41">
          <mxGeometry relative="1" as="geometry" />
        </mxCell>
        <mxCell id="Yi8c3AIgJzuLTYuk-4H1-70" style="edgeStyle=orthogonalEdgeStyle;rounded=0;orthogonalLoop=1;jettySize=auto;html=1;entryX=0.319;entryY=1.038;entryDx=0;entryDy=0;entryPerimeter=0;endArrow=ERoneToMany;endFill=0;" edge="1" parent="1" source="Yi8c3AIgJzuLTYuk-4H1-68" target="Yi8c3AIgJzuLTYuk-4H1-6">
          <mxGeometry relative="1" as="geometry" />
        </mxCell>
        <mxCell id="Yi8c3AIgJzuLTYuk-4H1-73" style="edgeStyle=orthogonalEdgeStyle;rounded=0;orthogonalLoop=1;jettySize=auto;html=1;entryX=0.95;entryY=0.975;entryDx=0;entryDy=0;entryPerimeter=0;endArrow=ERzeroToMany;endFill=0;" edge="1" parent="1" source="Yi8c3AIgJzuLTYuk-4H1-65" target="Yi8c3AIgJzuLTYuk-4H1-6">
          <mxGeometry relative="1" as="geometry" />
        </mxCell>
        <mxCell id="Yi8c3AIgJzuLTYuk-4H1-75" value="거래발생" style="rhombus;whiteSpace=wrap;html=1;" vertex="1" parent="1">
          <mxGeometry x="280" y="60" width="50" height="50" as="geometry" />
        </mxCell>
        <mxCell id="Yi8c3AIgJzuLTYuk-4H1-76" style="edgeStyle=orthogonalEdgeStyle;rounded=0;orthogonalLoop=1;jettySize=auto;html=1;entryX=0.025;entryY=0.563;entryDx=0;entryDy=0;entryPerimeter=0;endArrow=ERoneToMany;endFill=0;" edge="1" parent="1" source="Yi8c3AIgJzuLTYuk-4H1-75" target="Yi8c3AIgJzuLTYuk-4H1-6">
          <mxGeometry relative="1" as="geometry" />
        </mxCell>
        <mxCell id="Yi8c3AIgJzuLTYuk-4H1-77" style="edgeStyle=orthogonalEdgeStyle;rounded=0;orthogonalLoop=1;jettySize=auto;html=1;entryX=1.044;entryY=0.538;entryDx=0;entryDy=0;entryPerimeter=0;endArrow=ERoneToMany;endFill=0;" edge="1" parent="1" source="Yi8c3AIgJzuLTYuk-4H1-75" target="Yi8c3AIgJzuLTYuk-4H1-5">
          <mxGeometry relative="1" as="geometry" />
        </mxCell>
        <mxCell id="Yi8c3AIgJzuLTYuk-4H1-78" style="edgeStyle=orthogonalEdgeStyle;rounded=0;orthogonalLoop=1;jettySize=auto;html=1;entryX=1.013;entryY=0.906;entryDx=0;entryDy=0;entryPerimeter=0;" edge="1" parent="1" source="Yi8c3AIgJzuLTYuk-4H1-18" target="Yi8c3AIgJzuLTYuk-4H1-5">
          <mxGeometry relative="1" as="geometry" />
        </mxCell>
        <mxCell id="Yi8c3AIgJzuLTYuk-4H1-81" value="1. 회원 - 계정 1:n&lt;div&gt;2. 회원 - 거래 1:n&lt;/div&gt;&lt;div&gt;3. 회원 - 댓글 1: n optional&lt;/div&gt;&lt;div&gt;4. 계정 - 거래 n:m&lt;/div&gt;&lt;div&gt;5. 거래 - 댓글 1: n optional&lt;/div&gt;" style="whiteSpace=wrap;html=1;aspect=fixed;align=left;" vertex="1" parent="1">
          <mxGeometry x="285" y="670" width="170" height="170" as="geometry" />
        </mxCell>
        <mxCell id="Yi8c3AIgJzuLTYuk-4H1-83" style="edgeStyle=orthogonalEdgeStyle;rounded=0;orthogonalLoop=1;jettySize=auto;html=1;entryX=0.681;entryY=-0.031;entryDx=0;entryDy=0;entryPerimeter=0;endArrow=ERone;endFill=0;" edge="1" parent="1" source="Yi8c3AIgJzuLTYuk-4H1-65" target="Yi8c3AIgJzuLTYuk-4H1-7">
          <mxGeometry relative="1" as="geometry" />
        </mxCell>
      </root>
    </mxGraphModel>
  </diagram>
</mxfile>
